<svg viewBox="0 0 72 72" xmlns="http://www.w3.org/2000/svg"><path d="m23 34s-1.5-3-1-5c.3-1.2 1.3-1.8 3-3 1.6-1.1 2-1.7 3-2 .7-2.5 1.5-4.5 2-7 .2624-1.3501.5962-2.6853 1-4 3.1022 1.4756 6.1082 3.1456 9 5 2.3 1.5 3.5 2.4 4 4 .6 2.1-.5 4.1-1 5 1.733-.395 3.5522-.0312 5 1 1.0498.6835 1.7728 1.7681 2 3 .2183 1.4136-.1422 2.8555-1 4 1.3967-.0125 2.7735.3317 4 1 1.3238.613 2.387 1.6762 3 3 .7 1.9-.2 4.3-2 6 1.4142-.2318 2.8613.13 4 1 1.5089 1.192 2.2706 3.0962 2 5-.5 3.5-4.6 4.9-5 5-2.2.7-5.3.2-10.2-.4-4.4-.6-12-.4-18-.4-5.5 1.1-12.8-1.2-12.8-4.2 0-2.7 2.3-4.5 3-5 .6347-.3938 1.3042-.7285 2-1-1-2-2-3-2-4 0-1.2 1.1-3.2 3-5 2.1-2.1 3-2 3-2z" fill="#a57939"/><path d="m31 13c3.1022 1.4756 6.1082 3.1456 9 5 2.3 1.5 3.5 2.4 4 4 .6 2.1-.5 4.1-1 5 1.733-.395 3.5522-.0312 5 1 1.0498.6835 1.7728 1.7681 2 3 .2183 1.4136-.1422 2.8555-1 4 1.3967-.0125 2.7735.3317 4 1 1.3238.613 2.387 1.6762 3 3 .7 1.9-.2 4.3-2 6 1.4142-.2318 2.8613.13 4 1 1.5089 1.192 2.2706 3.0962 2 5-.5 3.5-4.6 4.9-5 5-2.2.7-14.8-1.2-10-2 6-1 7.9-2.7 8-3 1-2-2-4-4-4 .2-3.3-.7-5.8-6-7 .7-3.2-.2-8.1-4-9 2-4 .4-7.2-1-10-2-4-3-6-7-8z" fill="#6a462f"/><ellipse cx="27.2" cy="39.4001" fill="#fff" rx="4.9" ry="6.9"/><ellipse cx="43.6" cy="38.9001" fill="#fff" rx="4.9" ry="6.9"/><g fill="none" stroke="#000"><path d="m19 45c-.1-.2-2.6-4.1-1-7 1.3-2.3 4.6-2.9 5-3m20-8c.3-.9 1.5-3.4 1-5-.4-1.3-.9-3-5-5l-8-4c.1933.9907.1933 2.0093 0 3-.2 1.1-.7 3.3-1 5m24 24c.6.1 4.8.5 6 4 1 3-2 7-6 7-4.3 0-7.5-1.2-11.7-1.6m-18.7-19.3c-.2 0-.4-.1-.6-.1-.7164-1.2072-1.064-2.5977-1-4 .1898-2.5628 1.7074-4.8391 4-6 1.9-.9 2.7-.1 5-1 1.5814-.6175 2.9644-1.6547 4-3m13.5 14.7c.199-.2085.3673-.4442.5-.7.2-.2 1.7-2.9 1-5-1-3-6-2.9-7-3-1.3213 1.9795-3.0205 3.6787-5 5-1.8714 1.2946-3.9774 2.2117-6.2 2.7m-.5 10c2.9464-.3254 5.8185-1.1364 8.5-2.4m-15.6 2.7h.7m25.1-10c1.5364.1434 2.9634.8569 4 2 1.3 1.7 2.5 4.5 0 7-2.7669 2.8203-6.2094 4.8858-10 6-6 2-15 5-21 5-5.1 0-9-1-9-5 0-4.4 7.7-4.9 10.2-5" stroke-linecap="round" stroke-linejoin="round" stroke-width="2"/><path d="m30.9 44.6c-.7483 1.0288-1.9286 1.6558-3.2 1.7-2.7 0-4.9-3.1-4.9-6.9s2.2-6.9 4.9-6.9 4.9 3.1 4.9 6.9c.0207 1.8731-.5768 3.7008-1.7 5.2" stroke-miterlimit="10" stroke-width="2.436"/><path d="m39.8 42.3c-.4095-1.0862-.613-2.2392-.6-3.4 0-3.8 2.2-6.9 4.9-6.9s4.9 3 4.9 6.9-2.2 6.9-4.9 6.9c-1.8 0-3.4-1.4-4.3-3.5" stroke-miterlimit="10" stroke-width="2.436"/></g><path d="m46.1 39c0 1.1046-.8954 2-2 2s-2-.8954-2-2 .8954-2 2-2 2 .8954 2 2"/><path d="m29.7 39.4c0 1.1046-.8954 2-2 2s-2-.8954-2-2 .8954-2 2-2 2 .8954 2 2"/></svg>